<?xml version="1.0" encoding="utf-8"?>
<!-- Generator: Adobe Illustrator 16.0.0, SVG Export Plug-In . SVG Version: 6.00 Build 0)  -->
<!DOCTYPE svg PUBLIC "-//W3C//DTD SVG 1.1//EN" "http://www.w3.org/Graphics/SVG/1.1/DTD/svg11.dtd">
<svg version="1.1" xmlns="http://www.w3.org/2000/svg" xmlns:xlink="http://www.w3.org/1999/xlink" x="0px" y="0px"
	 width="457.833px" height="232.074px" viewBox="0 0 457.833 232.074" enable-background="new 0 0 457.833 232.074"
	 xml:space="preserve">
<g id="Layer_1">
</g>
<g id="Laag_1">
	<g>
		<path fill="#00AEEF" d="M123.167,115.109c-43.731,30.737-76.33,87.665-76.33,87.665v0.02
			c28.987-38.002,53.337-65.49,89.105-76.832c-3.952-2.465-7.593-5.385-10.891-8.795
			C124.403,116.496,123.78,115.807,123.167,115.109z"/>
		<path fill="#00AEEF" d="M153.02,99.64c5.365,4.59,11.752,6.84,19.413,6.84c8.844,0,15.956-2.971,21.714-9.058
			c-5.778-0.925-12.022-1.453-18.858-1.467C167.764,95.939,160.317,97.273,153.02,99.64z"/>
		<path fill="#00AEEF" d="M452.128,89.177h-0.026c-0.054,0.004-0.104,0.012-0.159,0.016c1.156-0.003,2.324,0.005,3.514,0.034
			l-0.006-0.012c-77.512-23.594-91.655,56.621-146.922,55.941c-37.137-0.453-54.397-22.445-81.97-36.871
			c-2.024,3.155-4.316,6.095-6.906,8.788c-3.061,3.179-6.403,5.939-10.01,8.3c34.425,11.717,48.727,39.328,99.56,39.328
			c50.202,0,60.631-47.632,102.749-67.234C422.185,91.188,434.961,87.754,452.128,89.177z"/>
		<path fill="#00AEEF" d="M411.951,97.467c-38.032,23.336-40.785,86.111-101.861,86.111c-49.201,0-92.903-40.529-137.386-40.529
			c-44.485,0-74.694,27.26-104.363,59.738l-0.003,0.033c37.847-34.846,53.867-44.305,98.83-40.459
			c41.635,3.561,89.674,40.756,141.572,40.756c91.58,0,85.328-109.552,143.203-113.924C435.706,89.24,422.782,92.427,411.951,97.467
			z"/>
		<path fill="#00AEEF" d="M451.943,89.193c0.055-0.004,0.105-0.012,0.159-0.016h0.026c-17.167-1.423-29.943,2.011-40.177,8.29
			C422.782,92.427,435.706,89.24,451.943,89.193z"/>
	</g>
	<path fill="#002856" d="M1.733,129.734V3.158h93.854v21.414H27.289v28.06h63.548v21.326H27.289v34.451h70.714v21.326H1.733z"/>
	<path fill="#002856" d="M110.958,67.224c0-12.893,1.927-23.716,5.785-32.467c2.876-6.445,6.806-12.23,11.785-17.354
		c4.979-5.124,10.434-8.922,16.363-11.398C152.774,2.67,161.868,1,172.174,1c18.65,0,33.573,5.783,44.769,17.354
		c11.195,11.569,16.793,27.659,16.793,48.265c0,20.435-5.558,36.421-16.664,47.961c-11.11,11.542-25.962,17.312-44.553,17.312
		c-18.822,0-33.788-5.74-44.897-17.225C116.511,103.185,110.958,87.37,110.958,67.224z M137.293,66.359
		c0,14.332,3.309,25.199,9.927,32.595c6.619,7.397,15.024,11.094,25.213,11.094c10.188,0,18.549-3.67,25.082-11.009
		c6.534-7.339,9.801-18.348,9.801-33.026c0-14.504-3.182-25.327-9.542-32.463c-6.362-7.137-14.806-10.707-25.34-10.707
		s-19.024,3.614-25.47,10.835C140.514,40.905,137.293,51.798,137.293,66.359z"/>
	<path fill="#002856" d="M331.13,83.196l24.781,7.857c-3.799,13.814-10.117,24.075-18.951,30.78
		c-8.836,6.707-20.047,10.059-33.631,10.059c-16.81,0-30.622-5.74-41.444-17.225c-10.822-11.483-16.233-27.183-16.233-47.099
		c0-21.068,5.44-37.43,16.319-49.086C272.851,6.826,287.154,1,304.883,1c15.482,0,28.062,4.576,37.731,13.728
		c5.757,5.411,10.072,13.182,12.951,23.312l-25.299,6.045c-1.497-6.562-4.619-11.743-9.367-15.543
		c-4.749-3.797-10.52-5.697-17.311-5.697c-9.385,0-16.997,3.367-22.839,10.101c-5.842,6.736-8.763,17.644-8.763,32.726
		c0,16.002,2.876,27.398,8.633,34.19c5.756,6.792,13.239,10.188,22.449,10.188c6.79,0,12.636-2.157,17.528-6.476
		C325.489,99.255,329.001,92.463,331.13,83.196z"/>
	<g>
		<path fill="#FF5000" d="M9.482,230.158l-6.479-16.721h2.396l4.346,12.146c0.349,0.973,0.642,1.885,0.877,2.736
			c0.259-0.912,0.559-1.824,0.902-2.736l4.517-12.146h2.258l-6.546,16.721H9.482z"/>
		<path fill="#FF5000" d="M25.917,222.013c0-2.775,0.745-4.947,2.235-6.518s3.414-2.355,5.771-2.355
			c1.543,0,2.935,0.367,4.174,1.105s2.185,1.768,2.834,3.086c0.65,1.32,0.975,2.814,0.975,4.486c0,1.697-0.342,3.215-1.026,4.553
			s-1.654,2.352-2.908,3.039c-1.255,0.688-2.608,1.031-4.061,1.031c-1.574,0-2.981-0.379-4.22-1.141
			c-1.239-0.76-2.179-1.797-2.817-3.111C26.236,224.873,25.917,223.48,25.917,222.013z M28.198,222.047
			c0,2.016,0.542,3.604,1.625,4.764c1.084,1.158,2.443,1.738,4.078,1.738c1.665,0,3.036-0.586,4.111-1.756
			c1.076-1.172,1.614-2.832,1.614-4.984c0-1.361-0.23-2.549-0.69-3.564c-0.459-1.014-1.133-1.803-2.019-2.359
			c-0.886-0.561-1.88-0.84-2.982-0.84c-1.566,0-2.914,0.537-4.043,1.615C28.762,217.734,28.198,219.531,28.198,222.047z"/>
		<path fill="#FF5000" d="M50.393,222.013c0-2.775,0.745-4.947,2.235-6.518s3.414-2.355,5.771-2.355
			c1.543,0,2.935,0.367,4.175,1.105c1.239,0.738,2.184,1.768,2.834,3.086c0.65,1.32,0.976,2.814,0.976,4.486
			c0,1.697-0.342,3.215-1.027,4.553s-1.654,2.352-2.909,3.039c-1.254,0.688-2.608,1.031-4.06,1.031c-1.574,0-2.98-0.379-4.22-1.141
			c-1.24-0.76-2.178-1.797-2.817-3.111C50.712,224.873,50.393,223.48,50.393,222.013z M52.674,222.047
			c0,2.016,0.542,3.604,1.625,4.764c1.083,1.158,2.442,1.738,4.077,1.738c1.666,0,3.036-0.586,4.112-1.756
			c1.075-1.172,1.614-2.832,1.614-4.984c0-1.361-0.23-2.549-0.69-3.564c-0.46-1.014-1.133-1.803-2.019-2.359
			c-0.886-0.561-1.88-0.84-2.982-0.84c-1.567,0-2.915,0.537-4.043,1.615C53.239,217.734,52.674,219.531,52.674,222.047z"/>
		<path fill="#FF5000" d="M75.576,230.158v-16.721h7.414c1.491,0,2.624,0.15,3.399,0.449c0.776,0.301,1.395,0.83,1.859,1.592
			c0.464,0.76,0.695,1.602,0.695,2.52c0,1.188-0.384,2.186-1.152,3s-1.954,1.332-3.559,1.551c0.585,0.281,1.03,0.561,1.334,0.834
			c0.646,0.594,1.258,1.334,1.836,2.223l2.908,4.553h-2.783l-2.212-3.48c-0.646-1.004-1.179-1.771-1.597-2.305
			c-0.418-0.531-0.792-0.904-1.124-1.117c-0.331-0.213-0.667-0.359-1.009-0.443c-0.251-0.055-0.662-0.08-1.231-0.08h-2.566v7.426
			H75.576z M77.789,220.814h4.756c1.011,0,1.802-0.102,2.372-0.312c0.571-0.207,1.004-0.543,1.301-1.004
			c0.296-0.459,0.445-0.959,0.445-1.5c0-0.789-0.287-1.441-0.861-1.949c-0.574-0.51-1.481-0.764-2.72-0.764h-5.292V220.814z"/>
		<path fill="#FF5000" d="M102.55,230.158V215.41h-5.508v-1.973h13.253v1.973h-5.532v14.748H102.55z"/>
		<path fill="#FF5000" d="M123.65,230.158l-6.479-16.721h2.395l4.346,12.146c0.35,0.973,0.643,1.885,0.878,2.736
			c0.259-0.912,0.559-1.824,0.901-2.736l4.517-12.146h2.258l-6.547,16.721H123.65z"/>
		<path fill="#FF5000" d="M137.188,230.158l6.421-16.721h2.384l6.843,16.721h-2.521l-1.95-5.064h-6.992l-1.836,5.064H137.188z
			 M142.013,223.291h5.668l-1.745-4.631c-0.533-1.406-0.928-2.562-1.186-3.467c-0.213,1.072-0.513,2.137-0.901,3.193
			L142.013,223.291z"/>
		<path fill="#FF5000" d="M160.946,230.158v-16.721h7.413c1.49,0,2.624,0.15,3.399,0.449c0.776,0.301,1.396,0.83,1.86,1.592
			c0.463,0.76,0.695,1.602,0.695,2.52c0,1.188-0.384,2.186-1.152,3c-0.768,0.814-1.954,1.332-3.558,1.551
			c0.585,0.281,1.03,0.561,1.334,0.834c0.646,0.594,1.259,1.334,1.836,2.223l2.909,4.553h-2.783l-2.213-3.48
			c-0.646-1.004-1.179-1.771-1.597-2.305c-0.418-0.531-0.792-0.904-1.123-1.117c-0.332-0.213-0.667-0.359-1.01-0.443
			c-0.25-0.055-0.662-0.08-1.231-0.08h-2.566v7.426H160.946z M163.158,220.814h4.756c1.012,0,1.803-0.102,2.373-0.312
			c0.57-0.207,1.004-0.543,1.3-1.004c0.296-0.459,0.445-0.959,0.445-1.5c0-0.789-0.288-1.441-0.862-1.949
			c-0.573-0.51-1.48-0.764-2.719-0.764h-5.292V220.814z"/>
		<path fill="#FF5000" d="M184.133,230.158v-16.721h12.09v1.973h-9.877v5.121h9.25v1.963h-9.25v5.689h10.265v1.975H184.133z"/>
		<path fill="#FF5000" d="M205.952,230.158v-16.721h2.27l8.782,13.127v-13.127h2.122v16.721h-2.27l-8.782-13.139v13.139H205.952z"/>
		<path fill="#FF5000" d="M229.151,230.158v-16.721h5.76c1.3,0,2.292,0.078,2.977,0.238c0.958,0.221,1.775,0.621,2.452,1.197
			c0.883,0.746,1.542,1.699,1.979,2.857c0.437,1.16,0.655,2.484,0.655,3.975c0,1.27-0.148,2.396-0.445,3.377
			s-0.676,1.791-1.14,2.436c-0.464,0.643-0.973,1.148-1.523,1.516c-0.551,0.369-1.216,0.648-1.994,0.84
			c-0.78,0.189-1.677,0.285-2.688,0.285H229.151z M231.364,228.183h3.569c1.102,0,1.968-0.102,2.596-0.307
			c0.627-0.205,1.127-0.494,1.5-0.867c0.523-0.525,0.932-1.23,1.226-2.115c0.292-0.887,0.439-1.961,0.439-3.223
			c0-1.75-0.288-3.094-0.861-4.031c-0.575-0.941-1.272-1.57-2.094-1.889c-0.593-0.229-1.547-0.342-2.861-0.342h-3.514V228.183z"/>
		<path fill="#FF5000" d="M269.903,230.158l-6.479-16.721h2.396l4.344,12.146c0.351,0.973,0.645,1.885,0.879,2.736
			c0.259-0.912,0.559-1.824,0.9-2.736l4.518-12.146h2.258l-6.547,16.721H269.903z"/>
		<path fill="#FF5000" d="M287.055,230.158v-16.721h12.091v1.973h-9.878v5.121h9.25v1.963h-9.25v5.689h10.265v1.975H287.055z"/>
		<path fill="#FF5000" d="M308.931,230.158v-16.721h7.414c1.49,0,2.623,0.15,3.398,0.449c0.775,0.301,1.396,0.83,1.86,1.592
			c0.464,0.76,0.694,1.602,0.694,2.52c0,1.188-0.383,2.186-1.15,3c-0.769,0.814-1.955,1.332-3.559,1.551
			c0.584,0.281,1.029,0.561,1.334,0.834c0.646,0.594,1.258,1.334,1.836,2.223l2.908,4.553h-2.783l-2.213-3.48
			c-0.646-1.004-1.178-1.771-1.597-2.305c-0.418-0.531-0.792-0.904-1.122-1.117c-0.332-0.213-0.668-0.359-1.01-0.443
			c-0.251-0.055-0.662-0.08-1.232-0.08h-2.566v7.426H308.931z M311.144,220.814h4.757c1.011,0,1.802-0.102,2.372-0.312
			c0.57-0.207,1.004-0.543,1.301-1.004c0.296-0.459,0.443-0.959,0.443-1.5c0-0.789-0.287-1.441-0.86-1.949
			c-0.575-0.51-1.481-0.764-2.721-0.764h-5.292V220.814z"/>
		<path fill="#FF5000" d="M330.739,230.158v-2.053l8.565-10.711c0.608-0.762,1.186-1.424,1.732-1.984h-9.329v-1.973h11.976v1.973
			l-9.386,11.6l-1.016,1.174h10.676v1.975H330.739z"/>
		<path fill="#FF5000" d="M352.694,230.158v-16.721h12.09v1.973h-9.877v5.121h9.249v1.963h-9.249v5.689h10.266v1.975H352.694z"/>
		<path fill="#FF5000" d="M374.443,230.158v-16.721h2.213v8.291l8.305-8.291h3l-7.016,6.773l7.322,9.947h-2.92l-5.953-8.463
			l-2.738,2.668v5.795H374.443z"/>
		<path fill="#FF5000" d="M396.467,230.158v-16.721h12.091v1.973h-9.878v5.121h9.25v1.963h-9.25v5.689h10.265v1.975H396.467z"/>
		<path fill="#FF5000" d="M418.343,230.158v-16.721h7.414c1.49,0,2.623,0.15,3.398,0.449c0.775,0.301,1.396,0.83,1.859,1.592
			c0.465,0.76,0.695,1.602,0.695,2.52c0,1.188-0.383,2.186-1.151,3c-0.768,0.814-1.954,1.332-3.559,1.551
			c0.586,0.281,1.029,0.561,1.334,0.834c0.646,0.594,1.26,1.334,1.838,2.223l2.907,4.553h-2.783l-2.212-3.48
			c-0.647-1.004-1.179-1.771-1.598-2.305c-0.418-0.531-0.792-0.904-1.122-1.117c-0.332-0.213-0.668-0.359-1.011-0.443
			c-0.25-0.055-0.66-0.08-1.231-0.08h-2.566v7.426H418.343z M420.556,220.814h4.757c1.012,0,1.802-0.102,2.372-0.312
			c0.57-0.207,1.004-0.543,1.301-1.004c0.297-0.459,0.444-0.959,0.444-1.5c0-0.789-0.288-1.441-0.861-1.949
			c-0.575-0.51-1.481-0.764-2.72-0.764h-5.293V220.814z"/>
		<path fill="#FF5000" d="M441.484,230.158v-16.721h5.761c1.301,0,2.292,0.078,2.978,0.238c0.957,0.221,1.775,0.621,2.452,1.197
			c0.882,0.746,1.541,1.699,1.979,2.857c0.437,1.16,0.655,2.484,0.655,3.975c0,1.27-0.147,2.396-0.443,3.377
			c-0.297,0.98-0.678,1.791-1.142,2.436c-0.464,0.643-0.971,1.148-1.523,1.516c-0.551,0.369-1.216,0.648-1.995,0.84
			c-0.78,0.189-1.675,0.285-2.686,0.285H441.484z M443.697,228.183h3.571c1.103,0,1.967-0.102,2.595-0.307
			c0.626-0.205,1.127-0.494,1.499-0.867c0.524-0.525,0.935-1.23,1.227-2.115c0.293-0.887,0.439-1.961,0.439-3.223
			c0-1.75-0.288-3.094-0.861-4.031c-0.575-0.941-1.271-1.57-2.093-1.889c-0.593-0.229-1.548-0.342-2.863-0.342h-3.514V228.183z"/>
	</g>
</g>
</svg>
